<?xml version="1.0" encoding="utf-8"?>
<!-- Generator: Adobe Illustrator 27.5.0, SVG Export Plug-In . SVG Version: 6.00 Build 0)  -->
<svg version="1.1" xmlns="http://www.w3.org/2000/svg" xmlns:xlink="http://www.w3.org/1999/xlink" x="0px" y="0px"
	 viewBox="0 0 500 500" style="enable-background:new 0 0 500 500;" xml:space="preserve">
<g id="BACKGROUND">
	<rect style="fill:#FFFFFF;" width="500" height="500"/>
</g>
<g id="OBJECTS">
	<g>
		<g>
			<path style="fill:#E56031;" d="M110.431,219.563c5.32-5.32,16.848-17.068,32.365-11.305c11.841,4.398,36.799,14.853,53.204,19.73
				l3.848-0.726c-8.455-28.691-34.978-49.641-66.409-49.641c-38.24,0-69.24,31-69.24,69.241c0,38.241,31,69.24,69.24,69.24
				c25.924,0,48.507-14.256,60.373-35.347c-22.063-0.348-27.445-17.205-32.616-13.974c-1.792,1.119-5.748,3.646-10.44,6.091
				l5.324,6.354c10.506,13.135-2.45,21.715-2.45,21.715l-3.288-3.7c-2.055,5.291-6.641,8.337-6.641,8.337l-5.245-5.901
				c-1.414,1.387-2.531,2.132-2.531,2.132l-15.961-17.956l3.99-15.518c0,0,0.33,0.127,1.21,0.473
				c3.584-10.664,22.28-26.146,27.832-30.567l-1.775-0.943h-21.503c0,0-1.107,4.212-10.419,10.419
				c11.083,30.371-12.414,35.248-12.414,35.248s-7.495-26.781-11.527-36.801C91.425,236.394,105.11,224.883,110.431,219.563z"/>
			<path style="fill:#E56031;stroke:#E56031;stroke-miterlimit:10;" d="M144.535,275.806c-0.446,0.186-0.893,0.367-1.339,0.541
				l0.843,1.008L144.535,275.806z"/>
		</g>
		<path style="fill:#043730;stroke:#FFFFFF;stroke-miterlimit:10;" d="M110.541,259.352c11.306,17.956,21.615,7.648,21.615,7.648
			l12.635-36.245l-20.616-1.995l-14.963,24.274L110.541,259.352z"/>
		<path style="fill:#FFFFFF;stroke:#E56031;stroke-linecap:round;stroke-linejoin:round;stroke-miterlimit:10;" d="M206.865,225.938
			l-10.865,2.05c-16.404-4.877-41.362-15.333-53.204-19.73c-15.517-5.763-27.045,5.985-32.365,11.305
			c-5.32,5.321-19.005,16.831-15.074,26.602c4.032,10.02,11.527,36.801,11.527,36.801s23.497-4.877,12.414-35.248
			c9.312-6.207,10.419-10.419,10.419-10.419h21.503l58.498,31.059"/>
		<path style="fill:#FFFFFF;stroke:#E56031;stroke-miterlimit:10;" d="M141.023,286.757l12.607,14.185c0,0,12.956-8.58,2.45-21.715
			l-9.142-10.909L141.023,286.757z"/>
		<path style="fill:#E56031;" d="M137.698,293.011l4.901,5.931c2.043,2.476,5.708,2.824,8.185,0.778
			c2.474-2.045,2.821-5.709,0.778-8.184l-4.899-5.932L137.698,293.011z"/>
		<path style="fill:#FFFFFF;stroke:#E56031;stroke-miterlimit:10;" d="M129.052,289.098l14.649,16.48c0,0,15.056-9.972,2.848-25.23
			l-10.624-12.677L129.052,289.098z"/>
		<path style="fill:#E56031;" d="M128.186,294.722l4.901,5.932c2.043,2.475,5.708,2.824,8.185,0.778
			c2.474-2.044,2.821-5.709,0.778-8.185l-4.9-5.931L128.186,294.722z"/>
		<path style="fill:#FFFFFF;stroke:#E56031;stroke-miterlimit:10;" d="M119.963,283.853l15.961,17.956
			c0,0,16.403-10.863,3.103-27.488c-12.192-4.878-15.074-5.985-15.074-5.985L119.963,283.853z"/>
		<path style="fill:#E56031;" d="M120.197,290.919l4.901,5.93c2.043,2.477,5.707,2.824,8.184,0.777
			c2.475-2.044,2.821-5.708,0.778-8.183l-4.9-5.933L120.197,290.919z"/>
		<path style="fill:#043730;stroke:#E56031;stroke-miterlimit:10;" d="M140.137,276.095c0,0,24.829,17.513,56.527,4.654
			c31.701-12.857-27.932-29.039-27.932-29.039l-22.39,11.747L140.137,276.095z"/>
		<g>
			<path style="fill:#043730;" d="M161.167,196.574l-60.962,111.039c4.009,2.197,8.257,4.015,12.699,5.391l56.322-102.584"/>
			<polyline style="fill:#043730;" points="169.226,210.42 182.246,186.706 170.197,180.126 161.167,196.574 			"/>
			<path style="fill:#043730;" d="M98.437,312.874l-0.959,15.202l12.862-9.658C106.174,316.943,102.194,315.079,98.437,312.874z"/>
		</g>
		<path style="fill:#FFFFFF;stroke:#E56031;stroke-linecap:round;stroke-linejoin:round;stroke-miterlimit:10;" d="M225.706,267.889
			c-13.301,2.662-22.613,12.415-29.927,12.858c-23.72,0.664-29.262-17.292-34.583-13.966c-5.321,3.326-29.705,19.063-35.912,8.203
			c-6.207-10.862,29.27-37.966,29.27-37.966"/>
		<path style="fill:#E56031;" d="M137.192,260.608l-6.362,4.327c-2.655,1.805-3.344,5.42-1.537,8.076
			c1.804,2.654,5.42,3.342,8.075,1.537l6.362-4.326L137.192,260.608z"/>
		<path style="fill:#E56031;" d="M96.9,266.46l1.973,7.437c0.823,3.103,4.006,4.951,7.11,4.126c3.103-0.822,4.95-4.006,4.127-7.108
			l-1.973-7.437L96.9,266.46z"/>
		<path style="fill:none;stroke:#E56031;stroke-linecap:round;stroke-linejoin:round;stroke-miterlimit:10;" d="M107.758,244.96
			c0,0,5.009,3.041,11.54,2.757"/>
		<path style="fill:none;stroke:#E56031;stroke-linecap:round;stroke-linejoin:round;stroke-miterlimit:10;" d="M125.83,231.454
			c0,0,1.117,3.698,3.887,5.844"/>
		<path style="fill:#E56031;" d="M184.348,183.926l0.686-1.239c1.941-3.502,0.674-7.914-2.829-9.854
			c-3.501-1.94-7.913-0.674-9.853,2.828l-0.685,1.239L184.348,183.926z"/>
		<path style="fill:none;stroke:#E56031;stroke-linecap:round;stroke-miterlimit:10;" d="M154.554,237.018
			c0,0,6.446-4.185,14.78-4.018"/>
		
			<line style="fill:none;stroke:#E56031;stroke-linecap:round;stroke-miterlimit:10;" x1="138.083" y1="237.542" x2="123.708" y2="263.959"/>
	</g>
</g>
<g id="TEXTS">
	<g>
		<text transform="matrix(1 0 0 1 219.0972 253.9749)" style="fill:#043730; font-family:'Calistoga-Regular'; font-size:48px;">NoteSeva</text>
	</g>
	<text transform="matrix(1 0 0 1 251.1569 277.6133)" style="fill:#E56031; font-family:'Baloo2-SemiBold'; font-size:14.519px;"></text>
</g>
</svg>
